<svg width="1150" height="366" viewBox="0 0 1150 366" fill="none" xmlns="http://www.w3.org/2000/svg">
<rect x="0.720337" y="0.675659" width="1148.8" height="364.412" fill="white"/>
<path d="M341.693 244.99V105.347H361.465V228.841H431.027V244.99H341.693ZM531.272 230.291H570.608V244.99H468.955V230.291H512.639V106.072H482.723V91.3726H531.272V230.291ZM706.979 233.5C708.773 233.5 710.809 233.258 713.086 232.775V244.369C708.394 245.473 703.597 246.025 698.698 246.025C691.797 246.025 686.759 244.231 683.584 240.642C680.479 236.985 678.719 231.291 678.305 223.562H677.684C673.198 231.912 667.885 237.916 661.743 241.574C655.67 245.231 648.148 247.06 639.176 247.06C628.273 247.06 620.06 244.093 614.54 238.158C609.019 232.223 606.258 224.08 606.258 213.728C606.258 189.643 621.924 177.429 653.254 177.083L677.684 176.669V170.562C677.684 161.522 675.855 155.035 672.198 151.101C668.54 147.098 662.709 145.097 654.704 145.097C646.56 145.097 640.694 146.546 637.106 149.445C633.517 152.343 631.378 156.829 630.688 162.902L611.227 161.142C614.402 140.991 628.997 130.916 655.014 130.916C668.816 130.916 679.168 134.159 686.069 140.646C693.039 147.064 696.524 156.38 696.524 168.595V216.833C696.524 222.354 697.249 226.529 698.698 229.359C700.147 232.119 702.907 233.5 706.979 233.5ZM643.938 232.878C650.563 232.878 656.429 231.291 661.536 228.117C666.642 224.942 670.611 220.698 673.44 215.384C676.269 210.07 677.684 204.584 677.684 198.925V189.712L658.016 190.126C649.873 190.264 643.662 191.162 639.383 192.818C635.105 194.474 631.758 197.028 629.342 200.478C626.996 203.86 625.823 208.38 625.823 214.039C625.823 219.697 627.341 224.252 630.377 227.703C633.483 231.153 638.003 232.878 643.938 232.878ZM827.927 244.99V155.138C827.927 145.822 828.03 138.886 828.237 134.332L828.548 123.98C824.131 138.196 820.853 148.237 818.714 154.103L801.737 199.443H787.556L770.372 154.103C769.13 150.929 765.817 140.888 760.434 123.98L760.849 155.138V244.99H744.286V105.347H768.819L787.97 155.966C789.419 159.624 791.765 167.595 795.009 179.878L797.7 170.562L802.255 156.07L821.405 105.347H844.696V244.99H827.927ZM975.892 244.99L961.607 205.447H903.327L889.146 244.99H868.857L921.65 105.347H944.113L995.974 244.99H975.892ZM932.622 120.253L931.38 124.291L924.238 146.236L908.607 190.023H956.534L938.626 138.265L932.622 120.253Z" fill="black"/>
<circle cx="242.805" cy="199.306" r="67.5" fill="#F2A93B"/>
<path d="M270.666 247.005L242.453 207.982L214.064 247.005H197.014L233.488 198.138L198.596 151.908H216.086L242.453 188.91L268.644 151.908H286.31L251.418 197.962L288.332 247.005H270.666Z" fill="black"/>
</svg>
